<svg width="160" height="24" viewBox="0 0 160 24" fill="none" xmlns="http://www.w3.org/2000/svg">
<g clip-path="url(#clip0_1822_25798)">
<path fill-rule="evenodd" clip-rule="evenodd" d="M10.638 0.727539L0.692383 23.3645H21.8607L11.9151 0.727539H10.638ZM11.2766 2.25581L19.9891 22.1108H2.56397L11.2766 2.25581ZM29.5988 0.913728V23.3645H45.635V22.171H30.7354V0.913728H29.5988ZM67.5768 2.10723V0.913728H50.3117V2.10723H58.3913V23.3645H59.4972V2.10723H67.5768ZM82.2993 0.913728H81.101L72.3149 23.3645H73.5132L76.4313 15.9454H86.9691L89.8567 23.3645H91.0855L82.2993 0.913728ZM86.5078 14.7841H76.8926L81.6849 2.46206L86.5078 14.7841ZM104.395 21.7839L96.2228 0.913728H94.994L103.78 23.3645H104.978L113.765 0.913728H112.566L104.395 21.7839ZM134.109 2.10723V0.913728H120.254V2.10723H126.613V22.171H120.254V23.3645H134.109V22.171H127.719V2.10723H134.109ZM150.521 0.913728H149.323L140.537 23.3645H141.735L144.654 15.9454H155.191L158.078 23.3645H159.307L150.521 0.913728ZM154.729 14.7841H145.114L149.907 2.46206L154.729 14.7841Z" fill="url(#paint0_linear_1822_25798)"/>
<mask id="mask0_1822_25798" style="mask-type:luminance" maskUnits="userSpaceOnUse" x="0" y="0" width="160" height="24">
<path d="M160 0H0V24H160V0Z" fill="white"/>
<path fill-rule="evenodd" clip-rule="evenodd" d="M10.638 0.727539L0.692383 23.3645H21.8607L11.9151 0.727539H10.638ZM11.2766 2.25581L19.9891 22.1108H2.56397L11.2766 2.25581ZM29.5988 0.913728V23.3645H45.635V22.171H30.7354V0.913728H29.5988ZM67.5768 2.10723V0.913728H50.3117V2.10723H58.3913V23.3645H59.4972V2.10723H67.5768ZM82.2993 0.913728H81.101L72.3149 23.3645H73.5132L76.4313 15.9454H86.9691L89.8567 23.3645H91.0855L82.2993 0.913728ZM86.5078 14.7841H76.8926L81.6849 2.46206L86.5078 14.7841ZM104.395 21.7839L96.2228 0.913728H94.994L103.78 23.3645H104.978L113.765 0.913728H112.566L104.395 21.7839ZM134.109 2.10723V0.913728H120.254V2.10723H126.613V22.171H120.254V23.3645H134.109V22.171H127.719V2.10723H134.109ZM150.521 0.913728H149.323L140.537 23.3645H141.735L144.654 15.9454H155.191L158.078 23.3645H159.307L150.521 0.913728ZM154.729 14.7841H145.114L149.907 2.46206L154.729 14.7841Z" fill="white"/>
</mask>
<g mask="url(#mask0_1822_25798)">
<path d="M0.692887 23.3645L0.517242 23.2794L0.390625 23.5675H0.692887V23.3645ZM10.6385 0.727521V0.524414H10.5147L10.4629 0.64244L10.6385 0.727521ZM21.8612 23.3645V23.5675H22.1635L22.0369 23.2794L21.8612 23.3645ZM11.9156 0.727521L12.0913 0.64244L12.0394 0.524414H11.9156V0.727521ZM19.9896 22.1108V22.3139H20.2918L20.1653 22.0258L19.9896 22.1108ZM11.2771 2.25579L11.4527 2.17079L11.2771 1.77043L11.1014 2.17079L11.2771 2.25579ZM2.56448 22.1108L2.3888 22.0258L2.26238 22.3139H2.56448V22.1108ZM29.5993 23.3645H29.4058V23.5675H29.5993V23.3645ZM29.5993 0.91371V0.710602H29.4058V0.91371H29.5993ZM45.6355 23.3645V23.5675H45.829V23.3645H45.6355ZM45.6355 22.1709H45.829V21.9678H45.6355V22.1709ZM30.7359 22.1709H30.5425V22.3741H30.7359V22.1709ZM30.7359 0.91371H30.9294V0.710602H30.7359V0.91371ZM67.5773 0.91371H67.7708V0.710602H67.5773V0.91371ZM67.5773 2.10721V2.31032H67.7708V2.10721H67.5773ZM50.3122 0.91371V0.710602H50.1188V0.91371H50.3122ZM50.3122 2.10721H50.1188V2.31032H50.3122V2.10721ZM58.3918 2.10721H58.5853V1.9041H58.3918V2.10721ZM58.3918 23.3645H58.1983V23.5675H58.3918V23.3645ZM59.4977 23.3645V23.5675H59.6912V23.3645H59.4977ZM59.4977 2.10721V1.9041H59.3043V2.10721H59.4977ZM81.1015 0.91371V0.710602H80.972L80.9228 0.83651L81.1015 0.91371ZM82.2998 0.91371L82.4785 0.83651L82.4293 0.710602H82.2998V0.91371ZM72.3154 23.3645L72.1367 23.2872L72.0266 23.5675H72.3154V23.3645ZM73.5137 23.3645V23.5675H73.6432L73.6924 23.442L73.5137 23.3645ZM76.4318 15.9454V15.7423H76.3029L76.2531 15.8678L76.4318 15.9454ZM86.9696 15.9454L87.1483 15.8685L87.0991 15.7423H86.9696V15.9454ZM89.8572 23.3645L89.6778 23.4413L89.727 23.5675H89.8572V23.3645ZM91.086 23.3645V23.5675H91.3748L91.2647 23.2872L91.086 23.3645ZM76.8931 14.7841L76.7137 14.7074L76.6049 14.9872H76.8931V14.7841ZM86.5083 14.7841V14.9872H86.7971L86.6877 14.7069L86.5083 14.7841ZM81.6854 2.46204L81.8641 2.38483L81.6847 1.92628L81.5061 2.38525L81.6854 2.46204ZM96.2233 0.91371L96.4027 0.836481L96.3528 0.710602H96.2233V0.91371ZM104.395 21.7839L104.216 21.8611L104.395 22.318L104.574 21.8611L104.395 21.7839ZM94.9945 0.91371V0.710602H94.7057L94.8158 0.990903L94.9945 0.91371ZM103.781 23.3645L103.602 23.4416L103.651 23.5675H103.781V23.3645ZM104.979 23.3645V23.5675H105.108L105.158 23.4416L104.979 23.3645ZM113.765 0.91371L113.944 0.990903L114.054 0.710602H113.765V0.91371ZM112.567 0.91371V0.710602H112.437L112.388 0.836481L112.567 0.91371ZM134.109 0.91371H134.303V0.710602H134.109V0.91371ZM134.109 2.10721V2.31032H134.303V2.10721H134.109ZM120.254 0.91371V0.710602H120.061V0.91371H120.254ZM120.254 2.10721H120.061V2.31032H120.254V2.10721ZM126.614 2.10721H126.807V1.9041H126.614V2.10721ZM126.614 22.1709V22.3741H126.807V22.1709H126.614ZM120.254 22.1709V21.9678H120.061V22.1709H120.254ZM120.254 23.3645H120.061V23.5675H120.254V23.3645ZM134.109 23.3645V23.5675H134.303V23.3645H134.109ZM134.109 22.1709H134.303V21.9678H134.109V22.1709ZM127.72 22.1709H127.526V22.3741H127.72V22.1709ZM127.72 2.10721V1.9041H127.526V2.10721H127.72ZM149.323 0.91371V0.710602H149.194L149.144 0.83651L149.323 0.91371ZM150.521 0.91371L150.7 0.83651L150.651 0.710602H150.521V0.91371ZM140.537 23.3645L140.358 23.2872L140.249 23.5675H140.537V23.3645ZM141.735 23.3645V23.5675H141.865L141.914 23.442L141.735 23.3645ZM144.654 15.9454V15.7423H144.525L144.475 15.8678L144.654 15.9454ZM155.191 15.9454L155.37 15.8685L155.321 15.7423H155.191V15.9454ZM158.079 23.3645L157.899 23.4413L157.949 23.5675H158.079V23.3645ZM159.308 23.3645V23.5675H159.596L159.486 23.2872L159.308 23.3645ZM145.115 14.7841L144.935 14.7074L144.827 14.9872H145.115V14.7841ZM154.73 14.7841V14.9872H155.019L154.909 14.7069L154.73 14.7841ZM149.907 2.46204L150.086 2.38483L149.906 1.92628L149.728 2.38525L149.907 2.46204ZM0.868534 23.4496L10.8142 0.812605L10.4629 0.64244L0.517242 23.2794L0.868534 23.4496ZM21.8612 23.1613H0.692887V23.5675H21.8612V23.1613ZM11.74 0.812605L21.6856 23.4496L22.0369 23.2794L12.0913 0.64244L11.74 0.812605ZM11.9156 0.524414H10.6385V0.930626H11.9156V0.524414ZM20.1653 22.0258L11.4527 2.17079L11.1014 2.34079L19.814 22.1958L20.1653 22.0258ZM2.56448 22.3139H19.9896V21.9077H2.56448V22.3139ZM11.1014 2.17079L2.3888 22.0258L2.74016 22.1958L11.4527 2.34079L11.1014 2.17079ZM29.7927 23.3645V0.91371H29.4058V23.3645H29.7927ZM45.6355 23.1613H29.5993V23.5675H45.6355V23.1613ZM45.442 22.1709V23.3645H45.829V22.1709H45.442ZM30.7359 22.3741H45.6355V21.9678H30.7359V22.3741ZM30.5425 0.91371V22.1709H30.9294V0.91371H30.5425ZM29.5993 1.11682H30.7359V0.710602H29.5993V1.11682ZM67.3839 0.91371V2.10721H67.7708V0.91371H67.3839ZM50.3122 1.11682H67.5773V0.710602H50.3122V1.11682ZM50.5057 2.10721V0.91371H50.1188V2.10721H50.5057ZM58.3918 1.9041H50.3122V2.31032H58.3918V1.9041ZM58.5853 23.3645V2.10721H58.1983V23.3645H58.5853ZM59.4977 23.1613H58.3918V23.5675H59.4977V23.1613ZM59.3043 2.10721V23.3645H59.6912V2.10721H59.3043ZM67.5773 1.9041H59.4977V2.31032H67.5773V1.9041ZM81.1015 1.11682H82.2998V0.710602H81.1015V1.11682ZM72.4941 23.4416L81.2802 0.990903L80.9228 0.83651L72.1367 23.2872L72.4941 23.4416ZM73.5137 23.1613H72.3154V23.5675H73.5137V23.1613ZM76.2531 15.8678L73.335 23.2869L73.6924 23.442L76.6112 16.0229L76.2531 15.8678ZM86.9696 15.7423H76.4318V16.1485H86.9696V15.7423ZM90.0359 23.2876L87.1483 15.8685L86.7902 16.0222L89.6778 23.4413L90.0359 23.2876ZM91.086 23.1613H89.8572V23.5675H91.086V23.1613ZM82.1211 0.990903L90.9072 23.4416L91.2647 23.2872L82.4785 0.83651L82.1211 0.990903ZM76.8931 14.9872H86.5083V14.581H76.8931V14.9872ZM81.5061 2.38525L76.7137 14.7074L77.0718 14.8609L81.8641 2.53882L81.5061 2.38525ZM86.6877 14.7069L81.8641 2.38483L81.5067 2.53924L86.3296 14.8613L86.6877 14.7069ZM96.0446 0.990939L104.216 21.8611L104.574 21.7066L96.4027 0.836481L96.0446 0.990939ZM94.9945 1.11682H96.2233V0.710602H94.9945V1.11682ZM103.959 23.2872L95.1732 0.83651L94.8158 0.990903L103.602 23.4416L103.959 23.2872ZM104.979 23.1613H103.781V23.5675H104.979V23.1613ZM113.586 0.83651L104.8 23.2872L105.158 23.4416L113.944 0.990903L113.586 0.83651ZM112.567 1.11682H113.765V0.710602H112.567V1.11682ZM104.574 21.8611L112.746 0.990939L112.388 0.836481L104.216 21.7066L104.574 21.8611ZM133.916 0.91371V2.10721H134.303V0.91371H133.916ZM120.254 1.11682H134.109V0.710602H120.254V1.11682ZM120.448 2.10721V0.91371H120.061V2.10721H120.448ZM126.614 1.9041H120.254V2.31032H126.614V1.9041ZM126.807 22.1709V2.10721H126.42V22.1709H126.807ZM120.254 22.3741H126.614V21.9678H120.254V22.3741ZM120.448 23.3645V22.1709H120.061V23.3645H120.448ZM134.109 23.1613H120.254V23.5675H134.109V23.1613ZM133.916 22.1709V23.3645H134.303V22.1709H133.916ZM127.72 22.3741H134.109V21.9678H127.72V22.3741ZM127.526 2.10721V22.1709H127.913V2.10721H127.526ZM134.109 1.9041H127.72V2.31032H134.109V1.9041ZM149.323 1.11682H150.521V0.710602H149.323V1.11682ZM140.716 23.4416L149.503 0.990903L149.144 0.83651L140.358 23.2872L140.716 23.4416ZM141.735 23.1613H140.537V23.5675H141.735V23.1613ZM144.475 15.8678L141.557 23.2869L141.914 23.442L144.833 16.0229L144.475 15.8678ZM155.191 15.7423H144.654V16.1485H155.191V15.7423ZM158.258 23.2876L155.37 15.8685L155.012 16.0222L157.899 23.4413L158.258 23.2876ZM159.308 23.1613H158.079V23.5675H159.308V23.1613ZM150.343 0.990903L159.129 23.4416L159.486 23.2872L150.7 0.83651L150.343 0.990903ZM145.115 14.9872H154.73V14.581H145.115V14.9872ZM149.728 2.38525L144.935 14.7074L145.293 14.8609L150.086 2.53882L149.728 2.38525ZM154.909 14.7069L150.086 2.38483L149.728 2.53924L154.551 14.8613L154.909 14.7069Z" fill="url(#paint1_linear_1822_25798)"/>
</g>
</g>
<defs>
<linearGradient id="paint0_linear_1822_25798" x1="-51.3264" y1="-11.6863" x2="-45.8263" y2="45.5965" gradientUnits="userSpaceOnUse">
<stop stop-color="#AD8557"/>
<stop offset="1" stop-color="#D4C8B6"/>
</linearGradient>
<linearGradient id="paint1_linear_1822_25798" x1="-51.822" y1="-12.1121" x2="-46.1454" y2="46.1832" gradientUnits="userSpaceOnUse">
<stop stop-color="#AD8557"/>
<stop offset="1" stop-color="#D4C8B6"/>
</linearGradient>
<clipPath id="clip0_1822_25798">
<rect width="160" height="24" fill="white"/>
</clipPath>
</defs>
</svg>
