<svg width="160" height="24" viewBox="0 0 160 24" fill="none" xmlns="http://www.w3.org/2000/svg">
<path d="M0.692643 23.3642L0.516998 23.2791L0.390381 23.5673H0.692643V23.3642ZM10.6383 0.727277V0.52417H10.5145L10.4626 0.642196L10.6383 0.727277ZM21.861 23.3642V23.5673H22.1633L22.0366 23.2791L21.861 23.3642ZM11.9154 0.727277L12.091 0.642196L12.0391 0.52417H11.9154V0.727277ZM19.9894 22.1105V22.3137H20.2915L20.1651 22.0255L19.9894 22.1105ZM11.2768 2.25555L11.4525 2.17055L11.2768 1.77019L11.1012 2.17055L11.2768 2.25555ZM2.56423 22.1105L2.38855 22.0255L2.26213 22.3137H2.56423V22.1105ZM29.599 23.3642H29.4056V23.5673H29.599V23.3642ZM29.599 0.913466V0.710358H29.4056V0.913466H29.599ZM45.6353 23.3642V23.5673H45.8287V23.3642H45.6353ZM45.6353 22.1707H45.8287V21.9676H45.6353V22.1707ZM30.7357 22.1707H30.5423V22.3738H30.7357V22.1707ZM30.7357 0.913466H30.9291V0.710358H30.7357V0.913466ZM67.5771 0.913466H67.7705V0.710358H67.5771V0.913466ZM67.5771 2.10696V2.31008H67.7705V2.10696H67.5771ZM50.312 0.913466V0.710358H50.1186V0.913466H50.312ZM50.312 2.10696H50.1186V2.31008H50.312V2.10696ZM58.3916 2.10696H58.585V1.90386H58.3916V2.10696ZM58.3916 23.3642H58.1981V23.5673H58.3916V23.3642ZM59.4975 23.3642V23.5673H59.6909V23.3642H59.4975ZM59.4975 2.10696V1.90386H59.3041V2.10696H59.4975ZM81.1013 0.913466V0.710358H80.9718L80.9226 0.836266L81.1013 0.913466ZM82.2996 0.913466L82.4783 0.836266L82.4291 0.710358H82.2996V0.913466ZM72.3152 23.3642L72.1365 23.287L72.0263 23.5673H72.3152V23.3642ZM73.5134 23.3642V23.5673H73.6429L73.6921 23.4417L73.5134 23.3642ZM76.4315 15.9452V15.742H76.3027L76.2528 15.8676L76.4315 15.9452ZM86.9693 15.9452L87.148 15.8683L87.0989 15.742H86.9693V15.9452ZM89.857 23.3642L89.6776 23.441L89.7267 23.5673H89.857V23.3642ZM91.0857 23.3642V23.5673H91.3745L91.2644 23.287L91.0857 23.3642ZM76.8928 14.7839L76.7134 14.7071L76.6047 14.987H76.8928V14.7839ZM86.5081 14.7839V14.987H86.7969L86.6874 14.7067L86.5081 14.7839ZM81.6852 2.46179L81.8639 2.38459L81.6845 1.92604L81.5058 2.38501L81.6852 2.46179ZM96.223 0.913466L96.4024 0.836237L96.3525 0.710358H96.223V0.913466ZM104.395 21.7836L104.216 21.8609L104.395 22.3177L104.574 21.8609L104.395 21.7836ZM94.9943 0.913466V0.710358H94.7055L94.8156 0.990659L94.9943 0.913466ZM103.78 23.3642L103.602 23.4414L103.651 23.5673H103.78V23.3642ZM104.979 23.3642V23.5673H105.108L105.157 23.4414L104.979 23.3642ZM113.765 0.913466L113.944 0.990659L114.054 0.710358H113.765V0.913466ZM112.567 0.913466V0.710358H112.437L112.388 0.836237L112.567 0.913466ZM134.109 0.913466H134.302V0.710358H134.109V0.913466ZM134.109 2.10696V2.31008H134.302V2.10696H134.109ZM120.254 0.913466V0.710358H120.061V0.913466H120.254ZM120.254 2.10696H120.061V2.31008H120.254V2.10696ZM126.613 2.10696H126.807V1.90386H126.613V2.10696ZM126.613 22.1707V22.3738H126.807V22.1707H126.613ZM120.254 22.1707V21.9676H120.061V22.1707H120.254ZM120.254 23.3642H120.061V23.5673H120.254V23.3642ZM134.109 23.3642V23.5673H134.302V23.3642H134.109ZM134.109 22.1707H134.302V21.9676H134.109V22.1707ZM127.719 22.1707H127.526V22.3738H127.719V22.1707ZM127.719 2.10696V1.90386H127.526V2.10696H127.719ZM149.323 0.913466V0.710358H149.193L149.144 0.836266L149.323 0.913466ZM150.521 0.913466L150.7 0.836266L150.651 0.710358H150.521V0.913466ZM140.537 23.3642L140.358 23.287L140.249 23.5673H140.537V23.3642ZM141.735 23.3642V23.5673H141.865L141.914 23.4417L141.735 23.3642ZM144.654 15.9452V15.742H144.524L144.474 15.8676L144.654 15.9452ZM155.191 15.9452L155.37 15.8683L155.321 15.742H155.191V15.9452ZM158.079 23.3642L157.899 23.441L157.948 23.5673H158.079V23.3642ZM159.307 23.3642V23.5673H159.596L159.486 23.287L159.307 23.3642ZM145.114 14.7839L144.935 14.7071L144.826 14.987H145.114V14.7839ZM154.73 14.7839V14.987H155.019L154.909 14.7067L154.73 14.7839ZM149.907 2.46179L150.086 2.38459L149.906 1.92604L149.727 2.38501L149.907 2.46179ZM0.86829 23.4493L10.8139 0.81236L10.4626 0.642196L0.516998 23.2791L0.86829 23.4493ZM21.861 23.1611H0.692643V23.5673H21.861V23.1611ZM11.7397 0.81236L21.6853 23.4493L22.0366 23.2791L12.091 0.642196L11.7397 0.81236ZM11.9154 0.52417H10.6383V0.930382H11.9154V0.52417ZM20.1651 22.0255L11.4525 2.17055L11.1012 2.34054L19.8138 22.1956L20.1651 22.0255ZM2.56423 22.3137H19.9894V21.9074H2.56423V22.3137ZM11.1012 2.17055L2.38855 22.0255L2.73992 22.1956L11.4525 2.34054L11.1012 2.17055ZM29.7924 23.3642V0.913466H29.4056V23.3642H29.7924ZM45.6353 23.1611H29.599V23.5673H45.6353V23.1611ZM45.4418 22.1707V23.3642H45.8287V22.1707H45.4418ZM30.7357 22.3738H45.6353V21.9676H30.7357V22.3738ZM30.5423 0.913466V22.1707H30.9291V0.913466H30.5423ZM29.599 1.11657H30.7357V0.710358H29.599V1.11657ZM67.3836 0.913466V2.10696H67.7705V0.913466H67.3836ZM50.312 1.11657H67.5771V0.710358H50.312V1.11657ZM50.5054 2.10696V0.913466H50.1186V2.10696H50.5054ZM58.3916 1.90386H50.312V2.31008H58.3916V1.90386ZM58.585 23.3642V2.10696H58.1981V23.3642H58.585ZM59.4975 23.1611H58.3916V23.5673H59.4975V23.1611ZM59.3041 2.10696V23.3642H59.6909V2.10696H59.3041ZM67.5771 1.90386H59.4975V2.31008H67.5771V1.90386ZM81.1013 1.11657H82.2996V0.710358H81.1013V1.11657ZM72.4939 23.4414L81.28 0.990659L80.9226 0.836266L72.1365 23.287L72.4939 23.4414ZM73.5134 23.1611H72.3152V23.5673H73.5134V23.1611ZM76.2528 15.8676L73.3347 23.2867L73.6921 23.4417L76.6109 16.0227L76.2528 15.8676ZM86.9693 15.742H76.4315V16.1482H86.9693V15.742ZM90.0357 23.2873L87.148 15.8683L86.79 16.022L89.6776 23.441L90.0357 23.2873ZM91.0857 23.1611H89.857V23.5673H91.0857V23.1611ZM82.1209 0.990659L90.907 23.4414L91.2644 23.287L82.4783 0.836266L82.1209 0.990659ZM76.8928 14.987H86.5081V14.5808H76.8928V14.987ZM81.5058 2.38501L76.7134 14.7071L77.0715 14.8607L81.8639 2.53858L81.5058 2.38501ZM86.6874 14.7067L81.8639 2.38459L81.5065 2.539L86.3294 14.8611L86.6874 14.7067ZM96.0443 0.990695L104.216 21.8609L104.574 21.7064L96.4024 0.836237L96.0443 0.990695ZM94.9943 1.11657H96.223V0.710358H94.9943V1.11657ZM103.959 23.287L95.173 0.836266L94.8156 0.990659L103.602 23.4414L103.959 23.287ZM104.979 23.1611H103.78V23.5673H104.979V23.1611ZM113.586 0.836266L104.8 23.287L105.157 23.4414L113.944 0.990659L113.586 0.836266ZM112.567 1.11657H113.765V0.710358H112.567V1.11657ZM104.574 21.8609L112.745 0.990695L112.388 0.836237L104.216 21.7064L104.574 21.8609ZM133.916 0.913466V2.10696H134.302V0.913466H133.916ZM120.254 1.11657H134.109V0.710358H120.254V1.11657ZM120.447 2.10696V0.913466H120.061V2.10696H120.447ZM126.613 1.90386H120.254V2.31008H126.613V1.90386ZM126.807 22.1707V2.10696H126.42V22.1707H126.807ZM120.254 22.3738H126.613V21.9676H120.254V22.3738ZM120.447 23.3642V22.1707H120.061V23.3642H120.447ZM134.109 23.1611H120.254V23.5673H134.109V23.1611ZM133.916 22.1707V23.3642H134.302V22.1707H133.916ZM127.719 22.3738H134.109V21.9676H127.719V22.3738ZM127.526 2.10696V22.1707H127.913V2.10696H127.526ZM134.109 1.90386H127.719V2.31008H134.109V1.90386ZM149.323 1.11657H150.521V0.710358H149.323V1.11657ZM140.716 23.4414L149.502 0.990659L149.144 0.836266L140.358 23.287L140.716 23.4414ZM141.735 23.1611H140.537V23.5673H141.735V23.1611ZM144.474 15.8676L141.556 23.2867L141.914 23.4417L144.833 16.0227L144.474 15.8676ZM155.191 15.742H144.654V16.1482H155.191V15.742ZM158.257 23.2873L155.37 15.8683L155.012 16.022L157.899 23.441L158.257 23.2873ZM159.307 23.1611H158.079V23.5673H159.307V23.1611ZM150.343 0.990659L159.129 23.4414L159.486 23.287L150.7 0.836266L150.343 0.990659ZM145.114 14.987H154.73V14.5808H145.114V14.987ZM149.727 2.38501L144.935 14.7071L145.293 14.8607L150.086 2.53858L149.727 2.38501ZM154.909 14.7067L150.086 2.38459L149.728 2.539L154.551 14.8611L154.909 14.7067Z" fill="url(#paint0_linear_1275_31553)"/>
<defs>
<linearGradient id="paint0_linear_1275_31553" x1="-51.8223" y1="-12.1124" x2="-46.1456" y2="46.183" gradientUnits="userSpaceOnUse">
<stop stop-color="#AD8557"/>
<stop offset="1" stop-color="#D4C8B6"/>
</linearGradient>
</defs>
</svg>
