<svg width="40" height="41" viewBox="0 0 40 41" fill="none" xmlns="http://www.w3.org/2000/svg">
<path d="M0 0.0888672L40 40.0889H4.27135e-05L0 0.0888672Z" fill="#F7F7F7"/>
<mask id="path-2-inside-1_1225_32733" fill="white">
<path d="M8.45521 6.56994C5.69215 8.92954 3.71846 12.0791 2.79989 15.5946C1.88132 19.1101 2.06199 22.8226 3.31758 26.2322C4.57317 29.6419 6.84338 32.5849 9.8225 34.6651C12.8016 36.7452 16.3466 37.8626 19.9801 37.8667C23.6136 37.8708 27.1611 36.7615 30.1449 34.688C33.1287 32.6146 35.4056 29.6767 36.6689 26.2699C37.9322 22.8631 38.1212 19.151 37.2106 15.6335C36.3 12.116 34.3334 8.96192 31.5757 6.59607L30.5173 7.82983C33.0228 9.97935 34.8096 12.845 35.6369 16.0409C36.4643 19.2368 36.2925 22.6094 35.1447 25.7047C33.9969 28.8 31.9283 31.4693 29.2173 33.3531C26.5063 35.2369 23.2832 36.2449 19.9819 36.2411C16.6807 36.2374 13.4599 35.2222 10.7531 33.3323C8.04641 31.4423 5.98379 28.7684 4.84301 25.6705C3.70223 22.5726 3.53807 19.1996 4.37265 16.0055C5.20722 12.8115 7.00045 9.94993 9.51086 7.80609L8.45521 6.56994Z"/>
</mask>
<path d="M8.45521 6.56994C5.69215 8.92954 3.71846 12.0791 2.79989 15.5946C1.88132 19.1101 2.06199 22.8226 3.31758 26.2322C4.57317 29.6419 6.84338 32.5849 9.8225 34.6651C12.8016 36.7452 16.3466 37.8626 19.9801 37.8667C23.6136 37.8708 27.1611 36.7615 30.1449 34.688C33.1287 32.6146 35.4056 29.6767 36.6689 26.2699C37.9322 22.8631 38.1212 19.151 37.2106 15.6335C36.3 12.116 34.3334 8.96192 31.5757 6.59607L30.5173 7.82983C33.0228 9.97935 34.8096 12.845 35.6369 16.0409C36.4643 19.2368 36.2925 22.6094 35.1447 25.7047C33.9969 28.8 31.9283 31.4693 29.2173 33.3531C26.5063 35.2369 23.2832 36.2449 19.9819 36.2411C16.6807 36.2374 13.4599 35.2222 10.7531 33.3323C8.04641 31.4423 5.98379 28.7684 4.84301 25.6705C3.70223 22.5726 3.53807 19.1996 4.37265 16.0055C5.20722 12.8115 7.00045 9.94993 9.51086 7.80609L8.45521 6.56994Z" stroke="#BFA380" stroke-width="3.60384" mask="url(#path-2-inside-1_1225_32733)"/>
<path d="M24.519 1.41548L24.519 1.41563L23.4356 5.74924C23.9597 9.53604 24.1889 11.0261 24.9902 16.2379L25.0035 16.3245L25.0035 16.3245L25.6834 20.7413L24.519 1.41548ZM24.519 1.41548C24.5686 1.21595 24.5244 1.00424 24.3971 0.84081L24.3969 0.840514M24.519 1.41548L24.3969 0.840514M24.3969 0.840514C24.2697 0.678556 24.0755 0.583351 23.869 0.583351H15.8026C15.5961 0.583351 15.4019 0.678556 15.2747 0.840514L15.2745 0.84081M24.3969 0.840514L15.2745 0.84081M15.2745 0.84081C15.1472 1.00424 15.1031 1.21595 15.1526 1.41548L15.1526 1.41561M15.2745 0.84081L15.1526 1.41561M15.1526 1.41561L16.2716 5.89487L13.9882 20.7413M15.1526 1.41561L14.2053 21.3444M14.2053 21.3444L14.2053 21.3444C14.0352 21.193 13.9534 20.9665 13.9882 20.7413M14.2053 21.3444L19.3909 25.9538C19.6442 26.179 20.0274 26.179 20.2808 25.9538L25.4663 21.3444L25.4664 21.3444M14.2053 21.3444L25.4664 21.3444M13.9882 20.7413L14.081 20.7557L13.9882 20.7414L13.9882 20.7413ZM25.4664 21.3444C25.6364 21.1931 25.7182 20.9666 25.6834 20.7414L25.4664 21.3444ZM22.1418 6.53286L24.3031 20.5846L19.8358 24.5561L15.3685 20.5846L17.5298 6.53286H22.1418ZM23.0112 1.92348L22.1939 5.19273H17.4777L16.6604 1.92348H23.0112Z" fill="#446467" stroke="#446467" stroke-width="0.187789"/>
</svg>
