<svg width="40" height="41" viewBox="0 0 40 41" fill="none" xmlns="http://www.w3.org/2000/svg">
<path d="M0 0.0888672L40 40.0889H4.27135e-05L0 0.0888672Z" fill="#F7F7F7"/>
<path d="M5.84476 9.07654L5.84553 9.07565C6.21007 8.65117 6.5744 8.28747 6.99953 7.92363C7.14012 7.81736 7.22438 7.64483 7.24126 7.46785C7.25816 7.2908 7.20834 7.10134 7.07042 6.96124C6.9638 6.82223 6.79186 6.73899 6.6156 6.72224C6.4384 6.70539 6.24872 6.75503 6.10838 6.89257C5.61454 7.26283 5.18321 7.69378 4.75371 8.18368C0.989585 12.4334 1.36243 18.958 5.492 23.0796L18.0481 35.6115C19.1195 36.7428 20.882 36.7403 22.0124 35.6122L29.3627 28.276C29.6367 28.0026 29.6367 27.5888 29.3627 27.3153C29.225 27.1779 29.038 27.111 28.8621 27.1027C28.6879 27.0944 28.5116 27.1432 28.4005 27.2542L21.0516 34.5889C20.4677 35.1121 19.5935 35.1121 19.0096 34.5889L6.51545 22.1189L6.515 22.1184C2.86633 18.5375 2.56483 12.7745 5.84476 9.07654ZM27.4758 4.49056V4.49055L27.4744 4.49052C24.7223 4.42947 22.0305 5.39761 20.0007 7.15558C16.7337 4.2389 12.0134 3.6391 8.08654 5.59738C7.73919 5.73807 7.60453 6.15235 7.80542 6.49282C7.94781 6.83859 8.36327 6.97136 8.70376 6.76932C12.3497 4.95118 16.663 5.67924 19.5189 8.52961C19.7928 8.803 20.2071 8.803 20.481 8.52961C24.1273 4.8904 30.1445 4.8904 33.7907 8.52961C33.9143 8.65294 34.0925 8.83118 34.2102 9.0074L34.2096 9.00778L34.2164 9.0154C37.4963 12.7134 37.1948 18.4764 33.5461 22.0573L33.5457 22.0577L30.1768 25.4201C29.9028 25.6936 29.9028 26.1074 30.1768 26.3809C30.4507 26.6543 30.8651 26.6543 31.139 26.3809L34.5075 23.0189C38.6377 18.9581 39.0101 12.4333 35.2463 8.18378C33.2723 5.906 30.4967 4.61362 27.4758 4.49056Z" fill="#BFA380" stroke="#BFA380" stroke-width="0.148148"/>
<path d="M21.8705 11.9028L21.8715 11.903V11.8907V11.8853C21.8716 11.7681 21.8716 11.633 21.8048 11.4972C21.6653 11.1523 21.2538 11.0192 20.9166 11.2206C17.0572 13.2161 16.1201 16.1205 16.0011 18.1357C15.822 17.8566 15.6759 17.6034 15.53 17.311C15.498 17.2165 15.4479 17.1138 15.3674 17.042C15.2859 16.9693 15.178 16.9328 15.0445 16.9596C14.7161 16.8404 14.3221 16.9721 14.1862 17.3107C13.9443 17.8569 13.7018 18.465 13.5197 19.074L13.5197 19.0743C13.1226 20.4227 13.1846 22.1632 13.6708 23.7334C14.1566 25.3021 15.0704 26.7149 16.3911 27.3938C17.428 28.0053 18.5869 28.3111 19.7458 28.3111L19.7483 28.311C21.5203 28.2497 23.2282 27.3919 24.4471 26.0467L24.4479 26.0459C25.3641 25.004 25.914 23.5952 25.9146 22.185L25.9195 22.1014L25.9196 22.0994C25.9781 21.104 26.0336 20.1576 25.9749 19.1535C25.9739 18.9432 25.837 18.7446 25.7119 18.6191L25.7123 18.6188L25.7058 18.6136C25.3638 18.3391 24.9551 18.4808 24.7553 18.7481L24.7544 18.7474L24.7484 18.7594C24.6706 18.9155 24.5662 19.0457 24.4501 19.1704C24.5999 18.2099 24.398 17.2255 24.1267 16.4237C23.832 15.5529 23.4527 14.8894 23.3406 14.6934L23.3406 14.6933C23.3238 14.6639 23.3148 14.6482 23.312 14.6426C23.2457 14.5095 23.1597 14.421 23.0526 14.3672C22.9474 14.3145 22.8286 14.2988 22.7026 14.2988C22.498 14.2988 22.2206 14.4336 22.1487 14.7154C22.044 15.0288 21.8452 15.2969 21.6294 15.5695C21.6284 15.5666 21.6274 15.5635 21.6264 15.5604C21.6258 15.5585 21.6251 15.5565 21.6244 15.5545C21.6124 15.5182 21.5954 15.4667 21.5619 15.4256C21.5517 15.3886 21.5434 15.3334 21.5381 15.2592C21.5321 15.1765 21.5302 15.0748 21.5321 14.9568C21.5358 14.721 21.5545 14.4241 21.5846 14.092C21.6448 13.4281 21.7501 12.6278 21.8705 11.9028ZM21.5653 17.1708C22.0185 17.114 22.4253 16.9021 22.6876 16.5322C22.8807 17.0244 23.0731 17.6413 23.1343 18.2624C23.2012 18.9415 23.1106 19.6156 22.7044 20.1395L22.704 20.1392L22.6994 20.1469C22.5022 20.4766 22.5627 20.8847 22.8993 21.092C22.9142 21.105 22.9356 21.1193 22.9601 21.1334C22.991 21.1512 23.0317 21.1712 23.0812 21.1905C23.1804 21.229 23.3165 21.265 23.4836 21.273C23.7936 21.2878 24.205 21.206 24.6801 20.8758C24.6792 21.2171 24.6725 21.6351 24.6205 22.0526L24.6199 22.0525V22.0617C24.6199 23.193 24.2048 24.2651 23.4926 25.0995C22.505 26.1199 21.5084 26.6991 20.458 26.8698C19.4071 27.0406 18.2918 26.8041 17.0642 26.1732C16.0943 25.6719 15.3789 24.5291 14.9892 23.2286C14.6002 21.9299 14.5419 20.4927 14.8682 19.4204C14.8975 19.3323 14.9268 19.2587 14.9569 19.1832L14.9572 19.1825C14.9714 19.1469 14.9857 19.1109 15.0002 19.0729C15.218 19.3797 15.45 19.6872 15.6878 20.0025L15.6883 20.0031C15.8912 20.2721 16.0985 20.5468 16.3057 20.8327C16.4491 21.047 16.7259 21.1086 16.9851 21.0445C17.3921 20.9747 17.5977 20.5645 17.462 20.2202C17.4305 20.1236 17.1225 19.0816 17.3373 17.7066C17.5485 16.3548 18.2653 14.6776 20.2568 13.2567C20.2031 13.7341 20.153 14.2732 20.1394 14.7644C20.1318 15.0385 20.1355 15.299 20.1567 15.5263C20.1776 15.7521 20.2162 15.9505 20.2813 16.0976C20.4661 16.5302 20.6847 16.7996 20.9095 16.9607C21.1351 17.1224 21.3619 17.1714 21.5561 17.1714V17.172L21.5653 17.1708Z" fill="url(#paint0_linear_1225_32743)" stroke="url(#paint1_linear_1225_32743)" stroke-width="0.148148"/>
<defs>
<linearGradient id="paint0_linear_1225_32743" x1="19.6295" y1="11.2" x2="19.6295" y2="28.237" gradientUnits="userSpaceOnUse">
<stop stop-color="#2C4646"/>
<stop offset="1" stop-color="#678E96"/>
</linearGradient>
<linearGradient id="paint1_linear_1225_32743" x1="19.6295" y1="11.2" x2="19.6295" y2="28.237" gradientUnits="userSpaceOnUse">
<stop stop-color="#2C4646"/>
<stop offset="1" stop-color="#678E96"/>
</linearGradient>
</defs>
</svg>
