<svg width="40" height="41" viewBox="0 0 40 41" fill="none" xmlns="http://www.w3.org/2000/svg">
<path d="M0 0.0888672L40 40.0889H4.27135e-05L0 0.0888672Z" fill="#F7F7F7"/>
<path d="M15.7498 19.0586C14.9014 17.5771 12.6743 18.8682 13.5227 20.3285L16.4286 25.3658C16.874 26.1065 17.8709 26.2335 18.4648 25.6409L27.0127 17.1115C28.2217 15.9051 26.3763 14.1061 25.1886 15.2913L17.8285 22.6355L15.7498 19.0586Z" fill="#446467"/>
<path d="M19.9998 2.31124C16.4838 2.31124 13.0466 3.35388 10.1231 5.30731C7.19958 7.26075 4.92097 10.0372 3.57542 13.2857C2.22987 16.5341 1.87781 20.1086 2.56377 23.5572C3.24972 27.0057 4.94288 30.1734 7.42914 32.6596C9.91539 35.1459 13.0831 36.839 16.5316 37.525C19.9801 38.2109 23.5546 37.8589 26.8031 36.5133C30.0515 35.1678 32.828 32.8892 34.7814 29.9657C36.7349 27.0421 37.7775 23.605 37.7775 20.0889C37.7887 17.7512 37.3364 15.4344 36.447 13.2725C35.5575 11.1106 34.2484 9.14639 32.5954 7.49336C30.9424 5.84033 28.9781 4.53126 26.8162 3.64179C24.6543 2.75233 22.3376 2.3001 19.9998 2.31124ZM19.9998 36.3373C15.6917 36.3333 11.5612 34.6201 8.51496 31.5738C5.46867 28.5275 3.75549 24.397 3.75144 20.0889C3.75144 15.7796 5.46332 11.6467 8.51049 8.59955C11.5577 5.55238 15.6905 3.8405 19.9998 3.8405C24.3092 3.8405 28.442 5.55238 31.4892 8.59955C34.5364 11.6467 36.2483 15.7796 36.2483 20.0889C36.2483 24.3983 34.5364 28.5311 31.4892 31.5783C28.442 34.6254 24.3092 36.3373 19.9998 36.3373Z" fill="#BFA380"/>
<mask id="path-4-inside-1_1225_32723" fill="white">
<path d="M22.9138 5.49507C20.2147 4.99647 17.4302 5.25746 14.8708 6.24896C12.3114 7.24045 10.0778 8.92346 8.41908 11.1103C6.76035 13.2971 5.74172 15.9017 5.47682 18.6336C5.21192 21.3655 5.71116 24.1173 6.91885 26.582C8.12655 29.0467 9.99521 31.1275 12.3164 32.5923C14.6376 34.057 17.3201 34.8481 20.0647 34.8774C22.8092 34.9066 25.508 34.1728 27.8599 32.7578C30.2117 31.3429 32.1243 29.3024 33.3842 26.8639L32.1807 26.2421C31.036 28.4576 29.2983 30.3115 27.1615 31.5971C25.0247 32.8827 22.5727 33.5494 20.0791 33.5228C17.5855 33.4962 15.1483 32.7775 13.0393 31.4467C10.9304 30.1158 9.23258 28.2253 8.13531 25.986C7.03805 23.7466 6.58446 21.2464 6.82514 18.7643C7.06582 16.2822 7.9913 13.9158 9.49836 11.9289C11.0054 9.94207 13.0348 8.41296 15.3602 7.51212C17.6855 6.61129 20.2154 6.37415 22.6677 6.82717L22.9138 5.49507Z"/>
</mask>
<path d="M22.9138 5.49507C20.2147 4.99647 17.4302 5.25746 14.8708 6.24896C12.3114 7.24045 10.0778 8.92346 8.41908 11.1103C6.76035 13.2971 5.74172 15.9017 5.47682 18.6336C5.21192 21.3655 5.71116 24.1173 6.91885 26.582C8.12655 29.0467 9.99521 31.1275 12.3164 32.5923C14.6376 34.057 17.3201 34.8481 20.0647 34.8774C22.8092 34.9066 25.508 34.1728 27.8599 32.7578C30.2117 31.3429 32.1243 29.3024 33.3842 26.8639L32.1807 26.2421C31.036 28.4576 29.2983 30.3115 27.1615 31.5971C25.0247 32.8827 22.5727 33.5494 20.0791 33.5228C17.5855 33.4962 15.1483 32.7775 13.0393 31.4467C10.9304 30.1158 9.23258 28.2253 8.13531 25.986C7.03805 23.7466 6.58446 21.2464 6.82514 18.7643C7.06582 16.2822 7.9913 13.9158 9.49836 11.9289C11.0054 9.94207 13.0348 8.41296 15.3602 7.51212C17.6855 6.61129 20.2154 6.37415 22.6677 6.82717L22.9138 5.49507Z" stroke="#BFA380" stroke-width="2.96296" mask="url(#path-4-inside-1_1225_32723)"/>
</svg>
