<svg width="22" height="22" viewBox="0 0 22 22" fill="none" xmlns="http://www.w3.org/2000/svg">
<path d="M19.4355 14.8033L16.4722 14.465C16.1238 14.4241 15.7706 14.4626 15.4392 14.5778C15.1078 14.693 14.8068 14.8818 14.5589 15.13L12.4122 17.2767C9.10026 15.5922 6.40828 12.9003 4.72387 9.58833L6.8822 7.42999C7.38387 6.92833 7.62887 6.22833 7.5472 5.51666L7.20887 2.57666C7.14273 2.00753 6.86959 1.4826 6.44148 1.10181C6.01336 0.721028 5.46016 0.510978 4.8872 0.511659H2.86887C1.55054 0.511659 0.453869 1.60833 0.535536 2.92666C1.15387 12.89 9.1222 20.8467 19.0739 21.465C20.3922 21.5467 21.4889 20.45 21.4889 19.1317V17.1133C21.5005 15.935 20.6139 14.9433 19.4355 14.8033Z" fill="url(#paint0_linear_1822_32476)"/>
<defs>
<linearGradient id="paint0_linear_1822_32476" x1="11.0101" y1="0.511658" x2="11.0101" y2="21.4693" gradientUnits="userSpaceOnUse">
<stop stop-color="#2C4646"/>
<stop offset="1" stop-color="#678E96"/>
</linearGradient>
</defs>
</svg>
